<svg xmlns="http://www.w3.org/2000/svg" width="122" height="120" viewBox="0 0 122 120" fill="none">
    <path d="M65.16 38.4426L72.5195 0L122 63.0105L83.3116 61.5578L65.16 38.4426Z" fill="url(#paint0_linear_479_1470)"
          fill-opacity="0.8"/>
    <ellipse cx="52.6421" cy="66.9022" rx="35.2284" ry="35.2558" transform="rotate(51.8587 52.6421 66.9022)"
             fill="#054FC3"/>
    <ellipse cx="52.232" cy="66.8649" rx="24.1485" ry="24.1065" transform="rotate(51.8587 52.232 66.8649)"
             fill="#182F53"/>
    <path d="M40.0741 64.7643C39.3417 64.3619 38.9756 64.1607 38.8866 63.9304C38.8095 63.7308 38.8326 63.5087 38.9485 63.3353C39.0822 63.1352 39.4795 63.0374 40.274 62.8418L62.8225 57.2913C63.5398 57.1147 63.8984 57.0264 64.1108 57.1303C64.2952 57.2205 64.4295 57.3917 64.4733 57.5926C64.5237 57.8239 64.353 58.1519 64.0117 58.808L53.282 79.4324C52.9039 80.1592 52.7149 80.5226 52.4891 80.6052C52.2934 80.6769 52.0725 80.6467 51.8972 80.5244C51.695 80.3832 51.5866 79.9792 51.37 79.1712L48.9104 69.9991C48.8664 69.835 48.8444 69.753 48.8047 69.6811C48.7696 69.6173 48.7243 69.5596 48.6708 69.5103C48.6104 69.4546 48.5361 69.4138 48.3874 69.3321L40.0741 64.7643Z"
          fill="white"/>
    <defs>
       
    </defs>
</svg>